# AST/ASF file generated using VICON BodyLanguage
# -----------------------------------------------
:version 1.10
:name VICON
:units
  mass 1.0
  length 0.45
  angle deg
:documentation
   .ast/.asf automatically generated from VICON data using
   VICON BodyBuilder and BodyLanguage model FoxedUp or BRILLIANT.MOD
:root
   order TX TY TZ RX RY RZ
   axis XYZ
   position 0 0 0  
   orientation 0 0 0 
:bonedata
  begin
     id 1 
     name lhipjoint
     direction 0.543289 -0.788407 0.288535 
     length 2.57127 
     axis 0 0 0  XYZ
  end
  begin
     id 2 
     name lfemur
     direction 0.34202 -0.939693 0  
     length 8.47298  
     axis 0 0 20  XYZ
    dof rx ry rz
    limits (-160.0 20.0)
           (-70.0 70.0)
           (-60.0 70.0)
  end
  begin
     id 3 
     name ltibia
     direction 0.34202 -0.939693 0   
     length 8.13367   
     axis 0 0 20   XYZ
    dof rx
    limits (-10.0 170.0)
  end
  begin
     id 4 
     name lfoot
     direction 0.114037 -0.313314 0.942778   
     length 2.67113   
     axis -90 7.62852e-016 20   XYZ
    dof rx rz
    limits (-45.0 90.0)
           (-70.0 20.0)
  end
  begin
     id 5 
     name ltoes
     direction 1.536e-011 -4.21847e-011 1   
     length 1.32217   
     axis -90 7.62852e-016 20   XYZ
    dof rx
    limits (-90.0 20.0)
  end
  begin
     id 6 
     name rhipjoint
     direction -0.571293 -0.770752 0.282074   
     length 2.63017  
     axis 0 0 0  XYZ 
  end
  begin
     id 7 
     name rfemur
     direction -0.34202 -0.939693 0   
     length 8.60885   
     axis 0 0 -20   XYZ
    dof rx ry rz
    limits (-160.0 20.0)
           (-70.0 70.0)
           (-70.0 60.0)
  end
  begin
     id 8 
     name rtibia
     direction -0.34202 -0.939693 0   
     length 8.07673   
     axis 0 0 -20   XYZ
    dof rx
    limits (-10.0 170.0)
 end
 begin
     id 9 
     name rfoot
     direction -0.121336 -0.333368 0.934956   
     length 2.81602  
     axis -90 -7.62852e-016 -20   XYZ
    dof rx rz
    limits (-45.0 90.0)
           (-20.0 70.0)
  end
  begin
     id 10 
     name rtoes
     direction -1.53491e-011 -4.21808e-011 1   
     length 1.38905   
     axis -90 -7.62852e-016 -20   XYZ
    dof rx
    limits (-90.0 20.0)
  end
  begin
     id 11 
     name lowerback
     direction 0.0136776 0.999869 -0.00861835   
     length 2.14087   
     axis 0 0 0   XYZ
    dof rx ry rz
    limits (-20.0 45.0)
           (-30.0 30.0)
           (-30.0 30.0)
  end
  begin
     id 12 
     name upperback
     direction -0.00789158 0.999804 0.0181308   
     length 2.14151   
     axis 0 0 0   XYZ
    dof rx ry rz
    limits (-20.0 45.0)
           (-30.0 30.0)
           (-30.0 30.0)
  end
  begin
     id 13 
     name thorax
     direction -0.0135231 0.999666 0.0220247   
     length 2.13644   
     axis 0 0 0   XYZ
    dof rx ry rz
    limits (-20.0 45.0)
           (-30.0 30.0)
           (-30.0 30.0)
  end
  begin
     id 14 
     name lowerneck
     direction -0.0392259 0.997317 0.0618018   
     length 1.65045   
     axis 0 0 0   XYZ
    dof rx ry rz
    limits (-20.0 45.0)
           (-30.0 30.0)
           (-30.0 30.0)
  end
  begin
     id 15 
     name upperneck
     direction 0.0765547 0.994276 -0.0745319   
     length 1.66045   
     axis 0 0 0   XYZ
    dof rx ry rz
    limits (-20.0 45.0)
           (-30.0 30.0)
           (-30.0 30.0)
  end
  begin
     id 16
     name head
     direction 0.0241564 0.999031 -0.036785  
     length 1.66594  
     axis 0 0 0   XYZ
    dof rx ry rz
    limits (-20.0 45.0)
           (-30.0 30.0)
           (-30.0 30.0)
  end
  begin
     id 17 
     name lclavicle
     direction 0.967398 0.249018 0.0461573  
     length 3.75176  
     axis 0 0 0   XYZ
    dof ry rz
    limits (-20.0 10.0)
           (0.0 20.0)
  end
  begin
     id 18 
     name lhumerus
     direction 1 -4.48963e-011 -3.05005e-027   
     length 5.93342   
     axis 180 -30 -90   XYZ
    dof rx ry rz
    limits (-60.0 90.0)
           (-90.0 90.0)
           (-90.0 90.0)
  end
  begin
     id 19
     name lradius
     direction 1 -4.48957e-011 1.07006e-026   
     length 3.94763   
     axis 180 -30 -90   XYZ
    dof rx
    limits (-10.0 170.0)
  end
  begin
     id 20
     name lwrist
     direction 1 -4.48978e-011 1.92422e-026   
     length 1.97382   
     axis -1.18182e-014 90 90   XYZ
    dof ry
    limits (-180.0 0.0)
 end
  begin
     id 21 
     name lhand
     direction 1 -4.48931e-011 3.84844e-026   
     length 0.560187   
     axis -2.45563e-014 90 90   XYZ
    dof rx rz
    limits (-90.0 90.0)
           (-45.0 45.0)
  end
  begin
     id 22 
     name lfingers
     direction 1 -4.48952e-011 7.69687e-026   
     length 0.451637   
     axis -4.91126e-014 90 90   XYZ
    dof rx
    limits (0.0 90.0)
  end
  begin
     id 23
     name lthumb
     direction 0.707107 -6.34901e-011 0.707107   
     length 0.648463   
     axis -90 45 2.85299e-015   XYZ
    dof rx rz
    limits (-45.0 45.0)
           (-45.0 45.0)
  end
  begin
     id 24 
     name rclavicle
     direction -0.965946 0.258716 0.00371831   
     length 3.63667  
     axis 0 0 0   XYZ 
    dof ry rz
    limits (-10.0 20.0)
           (-20.0 0.0)
  end
  begin
     id 25 
     name rhumerus
     direction -1 -4.48966e-011 -1.78361e-028  
     length 6.28647   
     axis 180 30 90   XYZ
    dof rx ry rz
    limits (-90.0 60.0)
           (-90.0 90.0)
           (-90.0 90.0)
  end
  begin
     id 26 
     name rradius
     direction -1 -4.48961e-011 1.05248e-026   
     length 3.81645   
     axis 180 30 90   XYZ
    dof rx
    limits (-10.0 170.0)
  end
  begin
     id 27 
     name rwrist
     direction -1 -4.48979e-011 1.92422e-026   
     length 1.90822   
     axis -1.18182e-014 -90 -90   XYZ
    dof ry
    limits (-180.0 0.0)
  end
  begin
     id 28
     name rhand
     direction -1 -4.48937e-011 3.84844e-026   
     length 0.646185   
     axis -2.45563e-014 -90 -90   XYZ
    dof rx rz
    limits (-90.0 90.0)
           (-45.0 45.0)
  end
  begin
     id 29
     name rfingers
     direction -1 -4.48953e-011 7.69687e-026   
     length 0.520971   
     axis -4.91126e-014 -90 -90   XYZ
    dof rx
    limits (0.0 90.0)
  end
  begin
     id 30
     name rthumb
     direction -0.707107 -6.3494e-011 0.707107   
     length 0.748013   
     axis -90 -45 -2.85299e-015   XYZ
    dof rx rz
    limits (-45.0 45.0)
           (-45.0 45.0)
  end
:hierarchy
  begin
    root lhipjoint rhipjoint lowerback
    lhipjoint lfemur
    lfemur ltibia
    ltibia lfoot
    lfoot ltoes
    rhipjoint rfemur
    rfemur rtibia
    rtibia rfoot
    rfoot rtoes
    lowerback upperback
    upperback thorax
    thorax lowerneck lclavicle rclavicle
    lowerneck upperneck
    upperneck head
    lclavicle lhumerus
    lhumerus lradius
    lradius lwrist
    lwrist lhand lthumb
    lhand lfingers
    rclavicle rhumerus
    rhumerus rradius
    rradius rwrist
    rwrist rhand rthumb
    rhand rfingers
  end

#!OML:ASF H:\HAZMAT1\Patient Classification 1\Patient 3\Session 1\dancer.ASF
:FULLY-SPECIFIED
:DEGREES
60
upperback -1.771480 -3.860400 -1.667090
rfoot -4.817750 -29.627199
lradius 17.031900
lthumb 12.243300 56.475300
rradius 47.889198
lwrist -25.347601
rhand -36.503502 -30.743401
rhumerus 73.601997 -35.601700 -43.618599
lowerneck -6.415950 -5.163370 -2.568680
lhand -13.881600 26.853701
ltibia 103.486000
head 7.310410 -3.075250 1.293560
rwrist 24.381901
lfingers 7.125020
rtoes -8.328100
lowerback -0.106510 -2.934400 7.679580
rfingers 7.125020
lclavicle 0.000000 -0.000000
upperneck 19.593000 -7.181610 4.437320
rfemur -23.432899 11.144400 24.406099
thorax -2.409040 -2.085090 -5.944180
rclavicle 0.000000 -0.000000
rtibia 29.221800
lfoot 22.766899 -6.924500
lhumerus -46.949501 20.416500 26.822500
rthumb -9.595630 -60.504902
root 19.094101 20.002399 -10.424900 -888.942017 65.023201 -537.458008
ltoes 25.310801
lfemur -41.250500 -4.645480 -11.272100
61
upperback -0.927748 -1.622400 -2.110680
rfoot 2.340120 -28.410101
lradius 21.845699
lthumb 13.425400 59.290401
rradius 38.513100
lwrist -15.832400
rhand -33.541100 -26.511101
rhumerus 64.049896 -22.241501 -31.358999
lowerneck -7.867920 -5.480420 -4.065250
lhand -12.655400 29.743099
ltibia 140.664001
head 7.565500 -3.299740 1.625980
rwrist 18.581400
lfingers 7.125020
rtoes -9.532580
lowerback 2.315740 -1.260040 2.933920
rfingers 7.125020
lclavicle -0.000000 0.000000
upperneck 19.297100 -7.511360 4.925380
rfemur -9.230860 12.610800 23.985300
thorax -2.397230 -0.867743 -3.750270
rclavicle -0.000000 0.000000
rtibia 12.457200
lfoot 44.967602 -6.258120
lhumerus -41.609299 11.188400 5.850670
rthumb -6.736550 -56.383999
root 20.658600 20.539700 -9.890800 -901.768982 69.518799 -549.562012
ltoes 39.870399
lfemur -83.225098 -5.659710 -18.257099
62
upperback 0.651088 0.941015 -2.321570
rfoot -3.494340 -20.683300
lradius 19.492800
lthumb 14.767400 60.133202
rradius 43.072399
lwrist -19.675600
rhand -27.218500 -25.475901
rhumerus 42.373699 15.879900 -44.801800
lowerneck -6.774760 -4.131770 -2.943270
lhand -11.262700 30.679300
ltibia 101.581001
head 7.412180 -2.398040 1.302120
rwrist 15.219400
lfingers 7.125020
rtoes -12.606100
lowerback 1.464860 0.661259 3.916300
rfingers 7.125020
lclavicle 0.000000 -0.000000
upperneck 19.913500 -5.613600 3.878160
rfemur -16.242201 -1.239370 27.306200
thorax -0.049957 0.488942 -4.606880
rclavicle 0.000000 -0.000000
rtibia 28.568001
lfoot 41.366299 10.012000
lhumerus -43.042099 14.693700 14.684000
rthumb -0.631151 -55.454700
root 21.880699 20.195299 -9.614260 -918.098022 81.230698 -564.489014
ltoes 42.461102
lfemur -73.891998 -11.309900 -16.442200
63
upperback -0.535492 3.645190 -3.512340
rfoot -32.720200 -17.170500
lradius 18.077999
lthumb 13.341200 56.556301
rradius 37.120499
lwrist -25.245199
rhand -23.806200 -23.133101
rhumerus -1.649840 28.324499 -92.052002
lowerneck -6.888660 -2.732030 -0.337459
lhand -12.742700 27.003401
ltibia 61.770500
head 7.015790 -1.515640 1.217270
rwrist 26.284901
lfingers 7.125020
rtoes 16.932600
lowerback 0.581403 2.699450 4.097740
rfingers 7.125020
lclavicle -0.000000 -0.000000
upperneck 18.915300 -4.209220 4.596360
rfemur -21.037600 -0.928270 36.019501
thorax -0.392644 1.817010 -5.956050
rclavicle -0.000000 -0.000000
rtibia 42.157101
lfoot 5.986870 5.604680
lhumerus -42.860100 15.920600 40.756500
rthumb 2.664480 -53.096199
root 23.103901 18.075399 -8.875400 -1063.329956 84.910103 -713.953979
ltoes 13.227800
lfemur -59.398399 -11.704300 -6.169250
64
upperback -2.201200 3.660160 -5.687530
rfoot -21.404400 -1.157090
lradius 11.339700
lthumb 9.269590 58.734299
rradius 27.167200
lwrist -46.516701
rhand -20.597401 -21.431101
rhumerus -26.515499 25.471001 -103.170998
lowerneck -7.469760 -5.072390 -3.324030
lhand -16.964500 28.958000
ltibia 48.490299
head 7.131350 -3.092180 2.484710
rwrist 28.778500
lfingers 7.125020
rtoes -3.382940
lowerback 0.343193 2.710090 2.194370
rfingers 7.125020
lclavicle 0.000000 -0.000000
upperneck 17.890301 -7.603890 7.939510
rfemur -22.296801 -12.716200 41.452900
thorax -1.956460 1.792730 -7.220370
rclavicle 0.000000 -0.000000
rtibia 43.762600
lfoot -16.782101 4.681060
lhumerus -27.993299 27.253401 45.795399
rthumb 5.763030 -51.332699
root 24.830299 18.336000 -6.992490 -1034.069946 90.299599 -689.630005
ltoes -8.143250
lfemur -48.787399 -5.672650 -18.006001
65
upperback -1.548700 -3.388590 -3.703760
rfoot -12.001800 -6.303910
lradius 10.723900
lthumb 7.998720 56.020000
rradius 28.104300
lwrist -43.851200
rhand -21.488501 -25.208000
rhumerus -42.074600 7.331720 -90.565498
lowerneck -9.195880 0.915229 2.669100
lhand -18.281401 26.191401
ltibia 46.118801
head 6.983520 0.752274 -0.271346
rwrist 23.158899
lfingers 7.125020
rtoes -7.903810
lowerback 2.370470 -2.557780 2.533930
rfingers 7.125020
lclavicle -0.000000 -0.000000
upperneck 17.854300 0.983379 0.238092
rfemur -34.809898 -0.976064 15.526200
thorax -3.304520 -1.776020 -5.076990
rclavicle -0.000000 -0.000000
rtibia 73.243500
lfoot -19.046301 4.890290
lhumerus -22.844299 22.214600 67.493797
rthumb 4.902680 -55.131302
root 26.487801 18.346500 -4.678930 -1032.390015 92.012604 -686.271973
ltoes 1.226840
lfemur -40.106098 -12.614200 -6.775800
66
upperback -0.828315 -7.172990 -1.366050
rfoot -24.452801 3.499850
lradius 14.995800
lthumb 8.224320 53.973900
rradius 38.048599
lwrist -30.693001
rhand -21.027300 -25.430799
rhumerus -48.676800 6.761220 -74.421402
lowerneck -10.464900 5.059040 5.479520
lhand -18.047701 24.153900
ltibia 52.980400
head 5.962630 3.200250 -1.787730
rwrist 20.233101
lfingers 7.125020
rtoes -5.059990
lowerback 2.755290 -5.452230 3.644010
rfingers 7.125020
lclavicle -0.000000 0.000000
upperneck 12.892300 6.696750 -4.624400
rfemur -42.102299 20.220900 -12.500600
thorax -3.014390 -3.653670 -3.013360
rclavicle -0.000000 0.000000
rtibia 48.231499
lfoot -25.126600 8.203470
lhumerus -14.854200 -0.286034 78.223198
rthumb 5.348040 -55.343300
root 27.790400 17.162600 -1.158490 -1031.030029 95.314201 -688.439026
ltoes -12.124900
lfemur -43.350201 -12.326300 8.561550
67
upperback -0.174100 -7.378700 -2.966350
rfoot -37.941700 -11.115000
lradius 23.454901
lthumb 2.714820 57.385700
rradius 42.114201
lwrist -19.797199
rhand -21.965599 -21.967400
rhumerus -49.399502 9.603710 -93.565399
lowerneck -9.236570 5.353280 7.668420
lhand -23.754101 27.423201
ltibia 37.740501
head 4.071760 3.240240 -3.736190
rwrist 23.587000
lfingers 7.125020
rtoes -10.482600
lowerback 5.341560 -5.609370 2.493470
rfingers 7.125020
lclavicle -0.000000 -0.000000
upperneck 6.499910 7.084830 -9.634120
rfemur -52.709599 13.447900 9.085690
thorax -3.871630 -3.727210 -3.786330
rclavicle -0.000000 -0.000000
rtibia 69.276398
lfoot -12.806000 20.258801
lhumerus -18.374800 4.999730 67.056099
rthumb 4.441970 -51.900799
root 28.684500 16.747801 5.487270 -1057.739990 125.907997 -721.098022
ltoes 0.453978
lfemur -49.953098 -14.157200 24.259899
68
upperback -0.802646 -2.020720 -1.607920
rfoot -31.361401 -18.624100
lradius 46.701000
lthumb 3.265580 52.875900
rradius 32.916199
lwrist -11.177700
rhand -32.764900 -16.071400
rhumerus -48.815102 6.774670 -99.214302
lowerneck -3.696880 12.149800 12.996300
lhand -23.183800 22.921200
ltibia 78.631897
head 4.647940 8.141110 -4.889620
rwrist 8.837010
lfingers 7.125020
rtoes 9.266510
lowerback 3.176170 -1.740000 8.228830
rfingers 7.125020
lclavicle -0.000000 0.000000
upperneck 6.221990 16.694201 -12.932800
rfemur -63.675301 -15.071800 38.048698
thorax -2.970100 -1.169140 -6.186940
rclavicle -0.000000 0.000000
rtibia 70.438103
lfoot -20.490601 26.688499
lhumerus -26.696501 -19.092100 80.987701
rthumb -5.987240 -45.966801
root 29.853100 16.493401 11.166600 -1060.739990 171.014999 -720.760986
ltoes 17.152599
lfemur -30.405399 5.401670 -11.006900
